<?xml version="1.0" encoding="UTF-8"?>
<svg xmlns="http://www.w3.org/2000/svg" width="900" height="946" viewBox="0 0 900 946" role="img" aria-labelledby="title desc">
  <title id="title">AT Strategy</title>
  <desc id="desc">A sci-fi AT Strategy logo with chrome letters, tactical rings, and blue, orange, and purple command nodes.</desc>
  <defs>
    <radialGradient id="bgGlow" cx="50%" cy="43%" r="56%">
      <stop offset="0" stop-color="#0f366b"/>
      <stop offset=".42" stop-color="#071426"/>
      <stop offset="1" stop-color="#02070e"/>
    </radialGradient>
    <linearGradient id="chrome" x1="0" y1="0" x2="0" y2="1">
      <stop offset="0" stop-color="#d8f2ff"/>
      <stop offset=".2" stop-color="#8dc7ee"/>
      <stop offset=".48" stop-color="#2f6f9d"/>
      <stop offset=".76" stop-color="#b9e4ff"/>
      <stop offset="1" stop-color="#244769"/>
    </linearGradient>
    <linearGradient id="edge" x1="0" y1="0" x2="1" y2="1">
      <stop offset="0" stop-color="#7dd3fc"/>
      <stop offset=".55" stop-color="#2563eb"/>
      <stop offset="1" stop-color="#0f172a"/>
    </linearGradient>
    <filter id="blueGlow" x="-40%" y="-40%" width="180%" height="180%">
      <feGaussianBlur stdDeviation="7" result="blur"/>
      <feMerge>
        <feMergeNode in="blur"/>
        <feMergeNode in="SourceGraphic"/>
      </feMerge>
    </filter>
    <filter id="purpleGlow" x="-80%" y="-80%" width="260%" height="260%">
      <feGaussianBlur stdDeviation="8" result="blur"/>
      <feMerge>
        <feMergeNode in="blur"/>
        <feMergeNode in="SourceGraphic"/>
      </feMerge>
    </filter>
  </defs>
  <rect width="900" height="946" fill="#02070e"/>
  <rect x="38" y="39" width="39" height="39" fill="none" stroke="#123765" stroke-width="1.2"/>
  <rect x="823" y="39" width="39" height="39" fill="none" stroke="#123765" stroke-width="1.2"/>
  <rect x="38" y="871" width="39" height="39" fill="none" stroke="#123765" stroke-width="1.2"/>
  <rect x="823" y="871" width="39" height="39" fill="none" stroke="#123765" stroke-width="1.2"/>
  <g opacity=".72">
    <circle cx="263" cy="55" r="1.5" fill="#d8f2ff"/>
    <circle cx="593" cy="28" r="1.4" fill="#d8f2ff"/>
    <circle cx="831" cy="29" r="1.1" fill="#d8f2ff"/>
    <circle cx="117" cy="124" r="1" fill="#6ba6d8"/>
    <circle cx="864" cy="171" r="1.2" fill="#d8f2ff"/>
    <circle cx="812" cy="766" r="1.2" fill="#6ba6d8"/>
    <circle cx="237" cy="858" r="1" fill="#6ba6d8"/>
  </g>
  <circle cx="450" cy="387" r="255" fill="none" stroke="#245d93" stroke-width="1.2"/>
  <circle cx="450" cy="387" r="222" fill="none" stroke="#1e426b" stroke-width="1" stroke-dasharray="6 10"/>
  <circle cx="450" cy="387" r="150" fill="url(#bgGlow)" opacity=".72"/>
  <path d="M450 236 591 318 591 480 450 563 309 480 309 318Z" fill="none" stroke="#1e5f9a" stroke-width="1.2" opacity=".58"/>
  <path d="M450 236V520M266 222L391 320M637 219L522 319M450 520v90" stroke="#2a85c8" stroke-width="2" stroke-dasharray="6 7" opacity=".72"/>
  <g filter="url(#blueGlow)">
    <rect x="237" y="206" width="45" height="47" rx="8" fill="#163c68" stroke="#3aa6e8" stroke-width="3"/>
    <rect x="244" y="218" width="32" height="11" rx="2" fill="#d8f2ff"/>
    <circle cx="252" cy="223" r="2" fill="#39bdf8"/>
    <circle cx="268" cy="223" r="2" fill="#39bdf8"/>
    <path d="M243 238h34M248 244h24M235 218h-5v12h5M282 218h5v12h-5" stroke="#3aa6e8" stroke-width="2"/>
  </g>
  <g filter="url(#purpleGlow)">
    <ellipse cx="638" cy="227" rx="31" ry="15" fill="none" stroke="#8a2be2" stroke-width="3"/>
    <ellipse cx="638" cy="227" rx="23" ry="28" fill="none" stroke="#8a2be2" stroke-width="2" transform="rotate(75 638 227)"/>
    <circle cx="638" cy="227" r="8" fill="#a855f7"/>
  </g>
  <g filter="url(#blueGlow)">
    <path d="M352 282 300 489h58l22-89 29 89h51l-74-207Z" fill="url(#chrome)" stroke="#66c6ff" stroke-width="2"/>
    <path d="M398 399h-59l11-44h38Z" fill="#9bd8ff" opacity=".9"/>
    <path d="M472 282h145v55h-56v152h-58V337h-31Z" fill="url(#chrome)" stroke="#66c6ff" stroke-width="2"/>
    <path d="M352 282 386 489M561 337v152" stroke="#e7f8ff" stroke-width="2" opacity=".4"/>
  </g>
  <g filter="url(#purpleGlow)">
    <path d="M419 582h58v58h-58Z" fill="none" stroke="#ff7a00" stroke-width="3"/>
    <circle cx="448" cy="611" r="28" fill="none" stroke="#ff7a00" stroke-width="3"/>
    <circle cx="448" cy="611" r="8" fill="none" stroke="#ff7a00" stroke-width="2"/>
    <path d="M448 575v72M412 611h72" stroke="#ff7a00" stroke-width="2"/>
  </g>
  <text x="450" y="720" text-anchor="middle" font-family="Inter, Segoe UI, Arial, sans-serif" font-size="57" font-weight="900" letter-spacing="12" fill="#d8f2ff">AT STRATEGY</text>
  <circle cx="217" cy="736" r="4" fill="#f97316"/>
  <circle cx="448" cy="736" r="4" fill="#7dd3fc"/>
  <circle cx="679" cy="736" r="4" fill="#a855f7"/>
  <text x="450" y="773" text-anchor="middle" font-family="Inter, Segoe UI, Arial, sans-serif" font-size="16" letter-spacing="8" fill="#38bdf8">COMMAND THE FUTURE</text>
  <path d="M263 793h370" stroke="#1e4d82" stroke-width="2"/>
</svg>
